<?xml version="1.0" standalone="no"?>
<!DOCTYPE svg PUBLIC "-//W3C//DTD SVG 20010904//EN"
 "http://www.w3.org/TR/2001/REC-SVG-20010904/DTD/svg10.dtd">
<svg version="1.0" xmlns="http://www.w3.org/2000/svg"
 width="1312.000000pt" height="736.000000pt" viewBox="0 0 1312.000000 736.000000"
 preserveAspectRatio="xMidYMid meet">

<g transform="translate(0.000000,736.000000) scale(0.100000,-0.100000)"
fill="#000000" stroke="none">
<path d="M6463 5816 c-54 -18 -101 -47 -139 -88 -32 -34 -734 -1197 -734
-1216 0 -6 77 -139 171 -294 94 -156 266 -440 381 -633 116 -192 216 -358 223
-368 11 -16 22 -3 92 115 44 73 113 192 153 263 57 102 378 647 470 799 l18
29 21 -48 21 -47 -196 -324 -195 -324 90 -152 c49 -84 171 -288 271 -453 100
-165 233 -385 294 -490 62 -104 120 -202 130 -217 l18 -28 -60 0 -59 0 -60
102 c-88 151 -322 538 -346 571 -16 24 -22 26 -32 15 -6 -7 -64 -98 -127 -203
-64 -104 -201 -329 -305 -500 -212 -346 -243 -399 -243 -409 0 -3 298 -6 663
-5 l662 1 65 -91 65 -90 437 -1 c400 0 441 2 497 19 116 36 193 98 233 188 26
59 33 157 15 214 -8 25 -119 219 -247 430 -128 211 -317 521 -418 689 -102
168 -221 364 -265 435 -74 120 -542 893 -747 1235 -368 612 -466 770 -497 802
-20 20 -59 47 -87 59 -63 27 -174 35 -233 15z"/>
<path d="M5129 3773 c-310 -514 -686 -1136 -862 -1427 -53 -87 -102 -177 -108
-200 -6 -22 -9 -71 -6 -108 6 -88 43 -163 108 -222 89 -80 46 -77 920 -74 894
3 810 -7 883 113 24 39 149 243 278 455 129 212 279 456 332 544 54 87 96 160
93 162 -2 2 -284 4 -628 4 -343 0 -634 3 -646 6 -21 6 -21 6 -2 38 l19 33 218
6 c119 4 259 7 310 7 52 0 92 4 90 8 -1 5 -114 195 -249 423 -136 228 -285
479 -332 559 -47 80 -92 153 -99 163 -11 15 -48 -41 -319 -490z"/>
<path d="M4660 1590 c0 -13 11 -13 30 0 12 8 11 10 -7 10 -13 0 -23 -4 -23
-10z"/>
<path d="M4137 1563 c-11 -10 -8 -121 2 -128 6 -3 13 16 17 42 l7 47 16 -45
c9 -24 20 -44 25 -44 5 0 15 18 23 40 22 63 33 65 33 6 0 -32 4 -50 10 -46 21
13 7 135 -16 135 -7 0 -19 -19 -25 -42 -18 -64 -25 -65 -44 -9 -15 47 -31 61
-48 44z"/>
<path d="M4513 1560 c-76 -31 -34 -143 47 -125 25 5 30 12 30 35 0 29 -18 43
-40 30 -9 -6 -8 -10 5 -18 21 -11 12 -32 -14 -32 -25 0 -41 20 -41 51 0 36 23
53 60 45 31 -6 42 7 14 18 -20 8 -34 7 -61 -4z"/>
<path d="M4767 1562 c-28 -3 -28 -4 -25 -65 2 -34 7 -61 13 -59 5 1 10 12 10
24 0 32 29 34 43 3 13 -28 39 -36 27 -7 -8 18 -9 34 -3 65 4 24 -29 44 -65 39z
m42 -26 c9 -10 8 -16 -4 -26 -17 -14 -45 -7 -45 13 0 29 30 37 49 13z"/>
<path d="M4883 1563 c-9 -3 -13 -26 -13 -64 l0 -59 48 1 c44 2 45 2 12 8 -47
8 -55 41 -11 41 17 0 31 5 31 10 0 6 -14 10 -31 10 -44 0 -36 34 9 38 18 2 30
8 27 13 -6 9 -51 11 -72 2z"/>
<path d="M5046 1563 c-8 -8 -8 -76 0 -98 11 -27 53 -38 80 -20 20 13 24 24 24
70 0 30 -4 55 -10 55 -5 0 -10 -22 -10 -49 0 -51 -18 -78 -45 -67 -11 4 -15
20 -15 55 0 47 -9 68 -24 54z"/>
<path d="M5187 1564 c-11 -11 -8 -122 3 -129 6 -4 10 13 10 45 0 59 11 59 30
1 17 -52 33 -52 51 2 l14 42 3 -42 c2 -25 8 -43 15 -43 8 0 11 18 9 61 -3 48
-7 60 -20 57 -8 -2 -22 -22 -30 -46 -16 -49 -20 -48 -42 10 -15 41 -30 55 -43
42z"/>
<path d="M5558 1564 c-5 -4 -8 -36 -8 -71 l0 -63 34 0 c42 0 57 17 19 22 -26
3 -28 6 -33 61 -3 33 -8 55 -12 51z"/>
<path d="M5670 1550 c-41 -41 -12 -120 44 -120 36 0 56 26 56 70 0 62 -58 92
-100 50z m68 -12 c7 -7 12 -24 12 -38 0 -51 -52 -69 -72 -25 -22 49 25 98 60
63z"/>
<path d="M5840 1563 c-34 -14 -49 -58 -34 -98 9 -23 48 -36 84 -29 25 5 30 11
30 35 0 24 -4 29 -25 29 -14 0 -25 -4 -25 -10 0 -5 7 -10 16 -10 24 0 10 -25
-16 -28 -43 -7 -66 51 -33 83 12 12 25 15 52 10 24 -4 33 -3 26 4 -13 13 -56
21 -75 14z"/>
<path d="M5972 1554 c-19 -13 -22 -24 -20 -57 3 -35 8 -44 32 -56 44 -21 80 1
84 51 5 64 -47 97 -96 62z m62 -20 c19 -18 20 -38 6 -65 -20 -36 -70 -17 -70
27 0 22 24 54 40 54 5 0 16 -7 24 -16z"/>
<path d="M6167 1562 c-15 -3 -17 -13 -15 -65 l3 -62 43 -3 c49 -4 58 15 10 20
-46 4 -53 38 -9 38 17 0 31 5 31 10 0 6 -14 10 -31 10 -45 0 -36 33 11 40 l35
6 -30 5 c-16 2 -38 3 -48 1z"/>
<path d="M6275 1527 c-8 -53 -4 -92 10 -92 6 0 12 20 15 45 l5 45 13 -42 c16
-52 37 -56 46 -8 10 52 26 53 26 1 0 -25 5 -46 10 -46 6 0 10 30 10 69 0 62
-2 69 -18 64 -12 -3 -25 -23 -34 -51 -13 -39 -17 -44 -23 -27 -28 71 -35 85
-44 85 -5 0 -13 -20 -16 -43z"/>
<path d="M6629 1549 c-30 -30 -23 -88 14 -109 24 -13 30 -13 55 0 54 30 33
130 -28 130 -11 0 -29 -9 -41 -21z m75 -32 c7 -19 7 -34 0 -45 -25 -39 -74
-20 -74 27 0 55 57 69 74 18z"/>
<path d="M6899 1568 c-8 -43 -8 -127 0 -132 7 -5 11 8 11 38 0 57 13 59 30 6
15 -46 29 -47 44 -3 17 49 26 50 26 5 0 -23 5 -42 10 -42 6 0 10 28 10 65 0
52 -3 65 -15 65 -9 0 -20 -12 -25 -27 -26 -71 -26 -72 -49 -20 -11 26 -25 47
-31 47 -5 0 -10 -1 -11 -2z"/>
<path d="M7103 1558 c-17 -22 -45 -109 -38 -116 3 -4 11 1 16 11 13 22 69 24
69 2 0 -8 7 -15 15 -15 19 0 19 -4 -9 65 -25 62 -37 74 -53 53z m30 -47 c3
-13 -1 -21 -14 -24 -20 -5 -24 8 -13 37 7 19 20 13 27 -13z"/>
<path d="M7190 1558 c0 -4 9 -8 20 -8 18 0 20 -7 20 -55 0 -30 5 -55 10 -55 6
0 10 25 10 55 0 53 1 55 27 55 14 0 23 3 19 7 -10 11 -106 12 -106 1z"/>
<path d="M7329 1549 c-30 -30 -23 -88 14 -109 24 -13 30 -13 55 0 21 13 28 24
30 57 2 33 -1 44 -20 57 -30 22 -54 20 -79 -5z m70 -13 c17 -20 10 -67 -11
-80 -38 -23 -72 29 -48 73 12 24 42 27 59 7z"/>
<path d="M7548 1562 c-27 -3 -28 -5 -28 -69 l0 -66 40 6 c54 7 70 22 70 67 0
50 -25 69 -82 62z m50 -24 c7 -7 12 -24 12 -38 0 -32 -17 -50 -47 -50 -21 0
-23 4 -23 50 0 46 2 50 23 50 13 0 28 -5 35 -12z"/>
<path d="M7669 1560 c0 -3 -1 -32 -1 -65 l0 -60 39 4 c47 4 57 11 15 11 -25 0
-32 4 -32 20 0 16 7 20 30 20 17 0 30 5 30 10 0 6 -13 10 -30 10 -23 0 -30 4
-30 20 0 16 7 20 30 20 17 0 30 4 30 10 0 9 -79 10 -81 0z"/>
<path d="M7824 1558 c-3 -4 6 -8 20 -8 25 0 26 -3 26 -55 0 -70 18 -72 22 -3
3 46 6 53 28 59 24 7 24 7 -5 9 -16 1 -43 3 -58 4 -16 1 -31 -2 -33 -6z"/>
<path d="M8166 1508 c-17 -38 -23 -65 -17 -71 5 -5 12 -1 16 12 9 29 65 30 72
1 3 -11 10 -20 15 -20 6 0 7 11 4 24 -11 43 -45 116 -54 116 -5 0 -21 -28 -36
-62z m44 13 c0 -5 3 -16 6 -25 4 -12 0 -16 -15 -16 -22 0 -25 8 -15 34 7 17
24 22 24 7z"/>
<path d="M8289 1568 c-7 -29 -9 -138 -1 -138 13 0 24 47 17 71 -11 35 13 20
37 -23 13 -22 28 -42 33 -42 6 -1 11 27 13 62 3 69 -15 88 -20 20 l-3 -43 -28
48 c-23 38 -44 58 -48 45z"/>
<path d="M8462 1560 c-32 -13 -48 -53 -34 -85 14 -30 46 -44 88 -38 27 4 30 8
26 34 -3 23 -9 29 -30 29 -24 0 -25 -1 -7 -13 20 -16 13 -37 -14 -37 -25 0
-41 20 -41 52 0 33 28 51 65 42 15 -4 25 -2 25 5 0 6 -6 11 -14 11 -8 0 -20 2
-28 4 -7 3 -23 1 -36 -4z"/>
<path d="M8849 1549 c-30 -30 -23 -88 14 -109 24 -13 30 -13 54 0 44 25 50 95
9 122 -21 14 -56 8 -77 -13z m69 -11 c7 -7 12 -24 12 -38 0 -51 -52 -69 -72
-25 -22 49 25 98 60 63z"/>
<path d="M4312 1498 c3 -69 13 -77 66 -62 27 7 27 8 -8 13 -47 8 -56 41 -11
41 17 0 31 5 31 10 0 6 -14 10 -31 10 -44 0 -36 33 11 41 33 6 32 6 -13 8
l-48 1 3 -62z"/>
<path d="M4620 1501 l0 -59 41 -4 c22 -2 43 0 45 4 3 4 -11 8 -30 8 -29 0 -36
4 -36 20 0 16 7 20 30 20 17 0 30 5 30 10 0 6 -13 10 -30 10 -20 0 -30 5 -30
15 0 10 10 15 30 15 17 0 30 5 30 10 0 6 -18 10 -40 10 l-40 0 0 -59z"/>
<path d="M5370 1504 c-21 -57 -19 -83 4 -51 16 21 66 23 66 3 0 -16 18 -31 27
-23 3 3 -5 33 -18 66 -31 79 -50 80 -79 5z m53 7 c3 -13 -1 -21 -14 -24 -20
-5 -24 8 -13 37 7 19 20 13 27 -13z"/>
<path d="M6500 1501 c0 -33 5 -63 10 -66 6 -4 10 7 10 24 0 28 3 31 30 31 17
0 30 5 30 10 0 6 -13 10 -30 10 -23 0 -30 5 -30 19 0 15 8 21 38 24 34 3 33 4
-10 5 l-48 2 0 -59z"/>
<path d="M6760 1500 c0 -33 4 -60 10 -60 6 0 10 9 10 19 0 34 22 36 46 6 25
-32 42 -29 25 4 -9 15 -8 25 0 39 21 34 5 52 -46 52 l-45 0 0 -60z m75 31 c0
-8 -8 -19 -17 -25 -22 -13 -41 3 -32 28 8 20 49 18 49 -3z"/>
<path d="M7960 1500 c0 -33 4 -60 10 -60 6 0 10 9 10 20 0 11 7 20 15 20 8 0
20 -9 27 -20 7 -11 19 -20 27 -20 11 0 10 5 -3 25 -13 20 -14 29 -5 44 20 31
4 51 -41 51 l-40 0 0 -60z m65 25 c0 -13 -8 -21 -22 -23 -19 -3 -23 1 -23 23
0 22 4 26 23 23 14 -2 22 -10 22 -23z"/>
<path d="M8090 1494 c0 -42 4 -64 11 -62 6 2 10 7 10 11 -1 4 -1 32 -1 62 0
30 -4 55 -10 55 -6 0 -10 -29 -10 -66z"/>
<path d="M8580 1505 c0 -50 3 -57 26 -67 21 -10 31 -9 52 3 23 12 27 22 30 67
2 32 -1 52 -7 52 -6 0 -11 -19 -11 -43 0 -46 -13 -67 -41 -67 -21 0 -29 20
-29 71 0 21 -4 39 -10 39 -5 0 -10 -25 -10 -55z"/>
<path d="M8730 1495 c0 -61 1 -65 23 -64 12 0 31 4 42 9 17 7 15 9 -12 9 l-33
1 0 55 c0 30 -4 55 -10 55 -6 0 -10 -28 -10 -65z"/>
</g>
</svg>
